<?xml version="1.0" standalone="no"?>
<!DOCTYPE svg PUBLIC "-//W3C//DTD SVG 20010904//EN"
 "http://www.w3.org/TR/2001/REC-SVG-20010904/DTD/svg10.dtd">
<svg version="1.0" xmlns="http://www.w3.org/2000/svg"
 width="66.000000pt" height="118.000000pt" viewBox="0 0 66.000000 118.000000"
 preserveAspectRatio="xMidYMid meet">

<g transform="translate(0.000000,118.000000) scale(0.100000,-0.100000)"
fill="#000000" stroke="none">
<path d="M165 1146 c-40 -18 -69 -51 -97 -111 -21 -46 -23 -63 -22 -215 0
-145 4 -177 26 -261 14 -52 39 -127 54 -165 22 -55 27 -82 25 -135 -2 -73 2
-79 79 -109 19 -7 56 -33 83 -57 138 -127 261 -104 318 60 7 20 17 37 21 37
13 0 9 199 -7 294 -20 123 -48 219 -94 326 -34 80 -39 98 -34 144 5 47 3 54
-19 68 -13 9 -41 21 -62 26 -20 6 -53 25 -73 43 -43 37 -108 69 -143 68 -14 0
-38 -6 -55 -13z m95 -16 c20 -5 51 -23 70 -39 l35 -29 -45 -12 c-25 -6 -59
-23 -77 -36 -101 -76 -125 -324 -41 -420 23 -26 49 -40 112 -59 92 -28 96 -31
119 -65 12 -17 17 -45 17 -93 0 -86 -26 -142 -75 -163 -43 -18 -62 -17 -105 4
-52 26 -80 74 -80 138 0 40 -4 54 -14 54 -8 0 -16 -6 -19 -12 -7 -20 -36 56
-63 166 -66 259 -37 502 66 557 40 22 51 23 100 9z m144 -154 c51 -21 76 -60
76 -117 0 -36 4 -49 14 -49 8 0 16 8 18 18 4 21 60 -117 86 -213 112 -413 -33
-717 -251 -525 -41 36 -40 50 4 50 74 0 151 72 185 172 25 76 22 214 -6 272
-26 54 -60 76 -155 101 -49 13 -78 27 -96 47 -60 63 -35 206 42 245 31 16 42
16 83 -1z"/>
</g>
</svg>
